<svg width="24" height="24" viewBox="0 0 24 24" fill="none" xmlns="http://www.w3.org/2000/svg">
<g clip-path="url(#clip0_252_222)">
<path d="M20.7541 7.00339V10.2696C20.7541 10.2696 17.9312 10.4234 15.6965 8.5596V16.0421C15.6965 16.3316 15.6693 16.6121 15.615 16.9016C15.3436 18.2316 14.2126 21.5974 9.76115 21.9864C9.53495 22.0045 9.30876 22.0045 9.08257 21.9864C7.81588 21.8779 4.02489 21.1721 3.27393 16.6121C3.18345 16.0873 3.1744 15.5535 3.25583 15.0287C3.48202 13.4725 5.09252 9.19294 10.3854 9.70866V12.9568C10.3854 12.9568 8.11446 12.4139 7.01064 14.1692C6.43158 15.0921 6.36825 16.2502 6.85683 17.2183C7.22778 17.9602 7.97874 18.7202 9.44448 18.7745C10.0597 18.7745 12.014 18.5573 12.4483 16.1416V2H15.6965C15.6965 2 15.6965 6.68672 20.7632 7.00339H20.7541Z" fill="white"/>
</g>
<defs>
<clipPath id="clip0_252_222">
<rect width="24" height="24" fill="white"/>
</clipPath>
</defs>
</svg>
