<svg width="18" height="18" viewBox="0 0 18 18" fill="none" xmlns="http://www.w3.org/2000/svg">
<g clip-path="url(#clip0_128_82)">
<path d="M8.61565 0.291106L7.78803 3.18434C7.15119 5.41052 5.41178 7.15228 3.18423 7.78758L0.291772 8.61346C-0.0953855 8.72463 -0.0953855 9.27522 0.291772 9.38375L3.18423 10.2096C5.41178 10.8449 7.15119 12.5867 7.78803 14.8129L8.61565 17.7061C8.72787 18.0952 9.27774 18.0952 9.38716 17.7061L10.2148 14.8129C10.8516 12.5867 12.591 10.8449 14.8186 10.2096L17.711 9.38375C18.0982 9.27258 18.0982 8.72199 17.711 8.61346L14.8186 7.78758C12.591 7.15228 10.8516 5.41052 10.2148 3.18434L9.38716 0.291106C9.27494 -0.0980118 8.72506 -0.0980118 8.61565 0.291106Z" fill="white"/>
</g>
<defs>
<clipPath id="clip0_128_82">
<rect width="18" height="18" fill="white"/>
</clipPath>
</defs>
</svg>
