<svg width="35" height="35" viewBox="0 0 35 35" fill="none" xmlns="http://www.w3.org/2000/svg">
<g clip-path="url(#clip0_112_6)">
<path d="M16.7527 0.56612L15.1434 6.19185C13.9051 10.5205 10.5229 13.9073 6.19156 15.1426L0.567335 16.7485C-0.18547 16.9646 -0.18547 18.0352 0.567335 18.2463L6.19156 19.8521C10.5229 21.0874 13.9051 24.4742 15.1434 28.8029L16.7527 34.4286C16.9709 35.1852 18.0401 35.1852 18.2528 34.4286L19.8621 28.8029C21.1004 24.4742 24.4825 21.0874 28.8139 19.8521L34.4381 18.2463C35.1909 18.0301 35.1909 16.9595 34.4381 16.7485L28.8139 15.1426C24.4825 13.9073 21.1004 10.5205 19.8621 6.19185L18.2528 0.56612C18.0346 -0.190497 16.9654 -0.190497 16.7527 0.56612Z" fill="white"/>
</g>
<defs>
<clipPath id="clip0_112_6">
<rect width="35" height="35" fill="white"/>
</clipPath>
</defs>
</svg>
